<!-- Generated by IcoMoon.io -->
<svg version="1.1" xmlns="http://www.w3.org/2000/svg" width="1024" height="1024" viewBox="0 0 1024 1024">
<title></title>
<g id="icomoon-ignore">
</g>
<path fill="#f8e4e6" d="M512.398 996.212l123.11-85.828c353.251-274.534 387.286-478.812 388.456-560.113 1.878-132.982-69.44-326.504-265.413-322.396-186.52 3.887-241.648 137.157-246.573 150.055-4.881-12.898-60.031-146.168-246.551-150.078-195.973-4.108-267.268 189.413-265.391 322.441 1.126 81.278 35.184 285.577 388.435 560.113l123.132 85.806h0.795z"></path>
<path fill="#a67c52" d="M511.272 463.708c33.792 0 48.458 23.787 61.511 44.703 7.84 16.344 20.584 29.728 36.354 38.276 53.581 23.765 82.47 63.454 75.933 106.942-2.805 26.725-15.968 51.197-36.553 67.982-18.641 14.356-42.185 20.342-65.265 16.653-19.216-2.274-37.326-10.557-51.726-23.787-5.456-6.030-13.119-9.453-21.181-9.453s-15.747 3.423-21.203 9.453c-14.4 13.23-32.489 21.513-51.726 23.787-4.417 0.331-8.879 0.331-13.273 0-18.773 0.221-37.083-5.964-51.969-17.603-20.187-16.896-32.997-41.235-35.648-67.739-5.61-42.782 23.058-82.47 76.86-106.236 15.814-8.548 28.514-21.932 36.354-38.276 13.053-20.916 27.741-44.681 61.533-44.681zM307.149 380.928c27.498-6.648 56.63 18.552 65.928 57.513 4.042 16.476 3.534 33.748-1.391 49.916-4.527 15.505-16.455 27.586-31.672 32.114-2.982 0.662-6.030 0.972-9.1 0.927-29.596-4.307-52.742-28.226-56.607-58.463-9.321-39.225 5.367-75.315 32.843-82.007zM678.797 383.556c12.038-10.425 28.47-13.914 43.577-9.277 26.791 8.79 37.768 46.116 24.472 84.834-7.222 27.939-30.192 48.679-58.242 52.565-4.373 0-8.702-0.729-12.832-2.164-27.012-9.718-37.724-47.044-24.693-84.834 5.301-16.101 14.887-30.347 27.718-41.125zM436.487 284.652c15.814-0.508 30.811 7.178 39.844 20.452 9.674 14.002 15.416 30.435 16.543 47.53 3.003 39.954-16.786 73.216-44.99 75.602h-3.247c-14.666-0.574-28.226-8.15-36.597-20.452-9.895-13.87-15.615-30.39-16.543-47.53-3.247-40.175 16.565-73.437 44.99-75.602zM575.918 285.16l3.379 0.221c15.637 2.474 28.955 12.854 35.404 27.586 7.244 15.262 9.983 32.356 7.951 49.187-1.546 16.807-7.598 32.843-17.492 46.382-8.392 11.705-21.623 18.906-35.869 19.458h-3.975c-15.836-2.651-29.199-13.429-35.404-28.514-7.222-15.195-9.96-32.202-7.951-48.988 3.975-38.961 29.155-68.203 57.336-65.089l-3.379-0.221z"></path>
</svg>
