<!-- Generated by IcoMoon.io -->
<svg version="1.1" xmlns="http://www.w3.org/2000/svg" width="1024" height="1024" viewBox="0 0 1024 1024">
<title></title>
<g id="icomoon-ignore">
</g>
<path fill="#e5f1fa" d="M883.094 171.368c-9.13-24.216-32.48-41.425-59.891-41.425-7.481 0-14.674 1.298-21.351 3.668-10.985-19.373-31.78-32.44-55.645-32.44-35.325 0-63.951 28.647-63.951 63.972 0 1.896 0.083 3.772 0.248 5.606-30.749 4.678-54.306 31.203-54.306 63.23 0 35.345 28.647 63.992 63.972 63.992h177.344c4.183 0.865 8.533 1.298 12.984 1.298 35.304 0 63.951-28.647 63.951-63.951 0-35.119-28.318-63.622-63.354-63.951z"></path>
<path fill="#7ed321" d="M1008.008 1001.185h-991.994c-8.862 0-16.014-12.448-16.014-27.864 0-15.437 7.152-27.884 16.014-27.884h991.994c8.862 0 15.992 12.448 15.992 27.884 0 15.416-7.152 27.864-15.992 27.864z"></path>
<path fill="#7ed321" d="M253.187 968.479h-196.779v-49.215c0-18.053 14.633-32.666 32.851-32.666 18.033 0 32.81 14.633 32.81 32.666h0.165v-16.426c0-18.053 14.757-32.81 32.831-32.81 18.053 0 32.81 14.757 32.81 32.81v16.426c0-18.053 14.757-32.666 32.81-32.666 18.075 0 32.831 14.633 32.831 32.666h-0.33v49.215z"></path>
<path fill="#7ed321" d="M336.882 773.348c-138.083 0-250.116-112.033-250.116-250.137 0-138.083 112.012-500.397 250.116-500.397s250.116 362.313 250.116 500.397c0 138.083-112.012 250.137-250.116 250.137z"></path>
<path fill="#a67c52" d="M332.677 634.111c-4.534 0-9.068-1.731-12.489-5.172l-88.312-88.332c-6.904-6.904-6.904-18.075 0-24.958 6.904-6.924 18.075-6.924 24.999 0l88.29 88.312c6.904 6.904 6.904 18.075 0 24.979-3.442 3.442-7.976 5.172-12.489 5.172z"></path>
<path fill="#a67c52" d="M350.361 963.862c-11.397 0-20.609-7.935-20.609-17.744v-479.705c0-9.831 9.213-17.786 20.609-17.786 11.376 0 20.609 7.955 20.609 17.786v479.726c0 9.81-9.233 17.744-20.609 17.744z"></path>
<path fill="#8cc152" d="M638.893 943.252c-11.397 0-20.609-6.121-20.609-13.726v-13.746c0-7.605 9.213-13.746 20.609-13.746s20.609 6.142 20.609 13.746v13.746c0 7.605-9.233 13.726-20.609 13.726zM741.92 943.252c-11.397 0-20.609-6.121-20.609-13.726v-13.746c0-7.605 9.213-13.746 20.609-13.746s20.609 6.142 20.609 13.746v13.746c0 7.605-9.233 13.726-20.609 13.726z"></path>
<path fill="#c39772" d="M597.674 922.643h391.579v-41.219h-391.579zM597.674 798.986h391.579v-41.219h-391.579z"></path>
<path fill="#f4ce9f" d="M628.217 695.939l31.285 30.069v237.854h-61.828v-237.854zM731.635 695.939l30.914 30.069v237.854h-61.828v-237.854z"></path>
<path fill="#c39772" d="M731.635 882.578c5.050 0 9.15 4.102 9.15 9.15s-4.122 9.172-9.15 9.172c-5.070 0-9.15-4.122-9.15-9.172s4.081-9.15 9.15-9.15zM628.588 882.578c5.050 0 9.15 4.102 9.15 9.15s-4.122 9.172-9.15 9.172c-5.050 0-9.15-4.122-9.15-9.172s4.102-9.15 9.15-9.15z"></path>
<path fill="#f4ce9f" d="M876.231 695.939l30.584 30.069v237.854h-61.828v-237.854zM979.278 695.939l30.584 30.069v237.854h-61.828v-237.854z"></path>
<path fill="#c39772" d="M875.901 758.922c5.070 0 9.15 4.081 9.15 9.13s-4.081 9.172-9.15 9.172c-5.050 0-9.15-4.122-9.15-9.172s4.102-9.13 9.15-9.13zM978.948 758.922c5.070 0 9.15 4.081 9.15 9.13s-4.081 9.172-9.15 9.172c-5.050 0-9.15-4.122-9.15-9.172s4.102-9.13 9.15-9.13zM731.635 758.922c5.050 0 9.15 4.081 9.15 9.13s-4.122 9.172-9.15 9.172c-5.070 0-9.15-4.122-9.15-9.172s4.081-9.13 9.15-9.13zM628.588 758.922c5.050 0 9.15 4.081 9.15 9.13s-4.122 9.172-9.15 9.172c-5.050 0-9.15-4.122-9.15-9.172s4.102-9.13 9.15-9.13zM875.901 882.578c5.070 0 9.15 4.102 9.15 9.15s-4.081 9.172-9.15 9.172c-5.050 0-9.15-4.122-9.15-9.172s4.102-9.15 9.15-9.15zM978.948 882.578c5.070 0 9.15 4.102 9.15 9.15s-4.081 9.172-9.15 9.172c-5.050 0-9.15-4.122-9.15-9.172s4.102-9.15 9.15-9.15z"></path>
</svg>
