<!-- Generated by IcoMoon.io -->
<svg version="1.1" xmlns="http://www.w3.org/2000/svg" width="1024" height="1024" viewBox="0 0 1024 1024">
<title></title>
<g id="icomoon-ignore">
</g>
<path fill="#2b2b2b" d="M481.788 994.729h-35.18c-18.245 0-33.171-14.926-33.171-33.171v-77.548c0-18.224 14.926-33.151 33.171-33.151h35.18c18.245 0 33.151 14.926 33.151 33.151v77.548c0 18.245-14.905 33.171-33.151 33.171z"></path>
<path fill="#2b2b2b" d="M919.972 994.729h-35.201c-18.245 0-33.151-14.905-33.151-33.151v-77.591c0-18.224 14.905-33.129 33.151-33.129h35.201c18.245 0 33.151 14.905 33.151 33.129v77.591c0 18.245-14.905 33.151-33.151 33.151z"></path>
<path fill="#abd1ee" d="M942.277 657.075h-517.972l44.313-133.51c8.055-23.595 29.915-39.155 54.672-39.155h320.001c24.736 0 46.617 15.56 54.672 39.155l44.313 133.51z"></path>
<path fill="#8e430c" d="M464.008 628.3l32.22-95.561c3.468-11.48 14.989-19.556 27.061-19.556h320.001c12.094 0 23.595 8.076 27.061 19.577l32.22 95.539h-438.564zM969.317 647.878l-44.271-132.939c-11.543-35.687-44.355-59.302-81.755-59.302h-320.023c-37.379 0-70.191 23.615-81.713 59.302l-44.292 132.939c-3.446 8.626-1.733 18.436 3.446 25.878 5.729 7.484 14.376 12.094 23.595 12.094h517.972c9.218 0 17.843-4.609 23.595-12.094 5.18-7.442 6.913-17.252 3.446-25.878z"></path>
<path fill="#d06212" d="M942.277 628.28h-517.972c-47.781 0-86.322 38.563-86.322 86.364v172.644c0 16.11 12.664 28.753 28.774 28.753h633.068c16.11 0 28.774-12.643 28.774-28.753v-172.644c0-47.781-38.563-86.364-86.322-86.364z"></path>
<path fill="#ffd042" d="M495.361 800.966h-57.548c-15.899 0-28.774-12.897-28.774-28.774 0-15.899 12.875-28.753 28.774-28.753h57.548c15.899 0 28.774 12.854 28.774 28.753s-12.875 28.774-28.774 28.774zM928.767 800.966h-57.548c-15.899 0-28.795-12.897-28.795-28.774 0-15.899 12.897-28.753 28.795-28.753h57.548c15.899 0 28.774 12.854 28.774 28.753s-12.897 28.774-28.774 28.774z"></path>
<path fill="#509ddb" d="M148.637 825.574h44.038v-616.62h-44.038z"></path>
<path fill="#1190ed" d="M258.13 376.693h-170.086c-45.878 0-83.447-37.59-83.447-83.489v-162.876c0-45.878 37.569-83.447 83.447-83.447h170.086c45.878 0 83.405 37.569 83.405 83.447v162.897c0 45.878-37.527 83.447-83.405 83.447z"></path>
<path fill="#1190ed" d="M270.942 349.758h-195.73c-23.974 0-43.594-19.598-43.594-43.573v-188.795c0-23.996 19.619-43.594 43.594-43.594h195.709c23.954 0 43.573 19.598 43.573 43.573v188.795c0 23.996-19.619 43.615-43.573 43.615z"></path>
<path fill="none" stroke="#f1f7fc" stroke-linejoin="miter" stroke-linecap="butt" stroke-miterlimit="4" stroke-width="13.824" d="M270.942 349.758h-195.73c-23.974 0-43.594-19.598-43.594-43.573v-188.795c0-23.996 19.619-43.594 43.594-43.594h195.709c23.954 0 43.573 19.598 43.573 43.573v188.795c0 23.996-19.619 43.615-43.573 43.615z"></path>
<path fill="#f1f7fc" d="M166.841 159.165h-20.148v45.095h20.148c7.061 0 12.939-0.74 17.674-2.199 4.715-1.48 8.33-3.89 10.803-7.252 2.495-3.361 3.72-7.759 3.72-13.171 0-6.512-1.903-11.84-5.709-15.919-4.313-4.376-13.129-6.554-26.49-6.554zM174.092 226.819h-27.379v41.776c0 5.983-1.416 10.529-4.228 13.615-2.833 3.087-6.385 4.63-10.698 4.63-4.482 0-8.118-1.523-10.845-4.588-2.77-3.044-4.144-7.527-4.144-13.425v-113.784c0-6.554 1.523-11.269 4.525-14.101 3.024-2.812 7.823-4.228 14.398-4.228h38.372c11.332 0 20.064 0.867 26.195 2.622 6.026 1.691 11.247 4.482 15.645 8.372 4.376 3.869 7.738 8.626 10.022 14.291 2.262 5.645 3.425 11.987 3.425 19.028 0 15.031-4.652 26.427-13.89 34.186-9.302 7.738-23.087 11.628-41.396 11.628z"></path>
<path fill="#929292" d="M206.883 825.574h-72.473c-16.49 0-29.852-13.319-29.852-29.81v-50.486c0-16.469 13.341-29.81 29.852-29.81h72.453c16.49 0 29.831 13.341 29.831 29.81v50.486c0 16.49-13.341 29.81-29.831 29.81z"></path>
<path fill="#7d7d7d" d="M280.773 825.574h-220.233c-12.156 0-22.030-9.852-22.030-22.009 0-12.177 9.873-22.030 22.030-22.030h220.213c12.156 0 22.030 9.852 22.030 22.030 0 12.156-9.852 22.009-22.009 22.009z"></path>
</svg>
