<!-- Generated by IcoMoon.io -->
<svg version="1.1" xmlns="http://www.w3.org/2000/svg" width="1024" height="1024" viewBox="0 0 1024 1024">
<title></title>
<g id="icomoon-ignore">
</g>
<path fill="#26a69a" d="M480.653 620.198s0-41.796 20.898-62.694 62.694-41.796 41.796-104.49c0 0-20.898-20.898-62.694 0l-18.704 9.384-64.888 157.78h83.592zM271.673 620.198s35.861-266.971-13.416-300.68c0 0 34.314-159.076 97.008-159.076 0 0 41.796 62.694 41.796 146.286 0 0-83.592 83.592-62.694 313.469h-62.694z"></path>
<path fill="#299686" d="M208.98 285.831s-104.49 188.082 20.898 334.367h41.796s62.694-313.469-62.694-334.367z"></path>
<path fill="#26a69a" d="M125.388 620.198s-104.49-125.388-41.796-271.673c0 0 62.694 0 104.49 62.694s41.796 208.98 41.796 208.98h-104.49z"></path>
<path fill="#ee8436" d="M83.592 682.892h438.857v-62.694h-438.857z"></path>
<path fill="#d47531" d="M62.694 829.178h459.755v-146.286h-459.755z"></path>
<path fill="#26a69a" d="M689.633 202.239s-83.592 104.49 0 188.082c0 0 62.694 83.592 146.286 41.796 0 0 125.388-41.796 104.49-146.286l-41.796-83.592s41.796-125.388-104.49-125.388c0 0-125.388 0-104.49 125.388z"></path>
<path fill="#299686" d="M459.755 285.831s-65.661 4.702-95.524 75.504c-29.863 70.782-29.863 258.863-29.863 258.863h62.694s83.592-183.15 83.592-229.878c0-41.796-20.898-104.49-20.898-104.49z"></path>
<path fill="#c8a662" d="M1001.242 829.178l22.758 125.388h-1024l22.758-125.388z"></path>
<path fill="none" stroke="#299686" stroke-linejoin="round" stroke-linecap="round" stroke-miterlimit="4" stroke-width="20.48" d="M279.803 614.263c11.661-64.032 16.906-127.958 4.076-205.678-15.318-93.142-67.187-126.746-67.731-125.743 0 0-15.047 17.826-27.919 49.946-5.956 14.524-15.151 44.304-15.277 69.172"></path>
<path fill="none" stroke="#26a69a" stroke-linejoin="round" stroke-linecap="round" stroke-miterlimit="4" stroke-width="20.48" d="M238.195 614.263c-10.24-58.618-22.403-114.793-34.398-154.812-27.732-95.504-119.703-108.377-118.596-105.326-1.713-1.881-51.577 99.684-0.418 191.655 12.477 22.486 40.333 68.483 40.333 68.483"></path>
<path fill="none" stroke="#299686" stroke-linejoin="round" stroke-linecap="round" stroke-miterlimit="4" stroke-width="20.48" d="M393.362 612.028c19.707-52.705 63.697-142.816 81.669-179.827 31.138-61.942-12.497-151.761-13.897-152.409 0.126-3.428-76.696 8.986-103.319 96.611-21.859 72.16-19.227 162.858-21.859 235.624"></path>
<path fill="#a67c52" d="M104.49 608.182h397.061c23.084 0 41.796 18.712 41.796 41.796v146.286c0 23.084-18.712 41.796-41.796 41.796h-397.061c-23.084 0-41.796-18.712-41.796-41.796v-146.286c0-23.084 18.712-41.796 41.796-41.796z"></path>
<path fill="none" stroke="#26a69a" stroke-linejoin="round" stroke-linecap="round" stroke-miterlimit="4" stroke-width="20.48" d="M903.502 205.019v-27.293c0-59.81-48.211-108.293-107.708-108.293-59.476 0-107.687 48.484-107.687 108.293v27.293c-22.34 25.474-35.882 58.849-35.882 95.462 0 79.767 64.261 144.405 143.569 144.405 79.329 0 143.59-64.638 143.59-144.405 0-36.613-13.563-70.008-35.882-95.462z"></path>
<path fill="#ee8436" d="M689.633 649.978h208.98c23.084 0 41.796 18.712 41.796 41.796v104.49c0 23.084-18.712 41.796-41.796 41.796h-208.98c-23.084 0-41.796-18.712-41.796-41.796v-104.49c0-23.084 18.712-41.796 41.796-41.796z"></path>
</svg>
